<mxfile host="app.diagrams.net" modified="2024-04-05T06:46:11.111Z" agent="Mozilla/5.0 (Macintosh; Intel Mac OS X 10_15_7) AppleWebKit/537.36 (KHTML, like Gecko) Chrome/123.0.0.0 Safari/537.36" etag="MotiIteycyCU75FylvQd" version="24.2.1" type="device">
  <diagram name="Page-1" id="ZO61swOZhkkFQJ_L78vY">
    <mxGraphModel dx="1482" dy="786" grid="1" gridSize="10" guides="1" tooltips="1" connect="1" arrows="1" fold="1" page="1" pageScale="1" pageWidth="850" pageHeight="1100" math="0" shadow="0">
      <root>
        <mxCell id="0" />
        <mxCell id="1" parent="0" />
        <mxCell id="pM4ZCDwtvh7wN7IAai_k-5" value="" style="rounded=0;whiteSpace=wrap;html=1;" parent="1" vertex="1">
          <mxGeometry x="200" y="150" width="10" height="380" as="geometry" />
        </mxCell>
        <mxCell id="pM4ZCDwtvh7wN7IAai_k-6" value="User" style="shape=umlActor;verticalLabelPosition=bottom;verticalAlign=top;html=1;outlineConnect=0;" parent="1" vertex="1">
          <mxGeometry x="190" y="40" width="30" height="60" as="geometry" />
        </mxCell>
        <mxCell id="pM4ZCDwtvh7wN7IAai_k-7" value="" style="rounded=0;whiteSpace=wrap;html=1;" parent="1" vertex="1">
          <mxGeometry x="400" y="150" width="10" height="380" as="geometry" />
        </mxCell>
        <mxCell id="pM4ZCDwtvh7wN7IAai_k-8" value="" style="rounded=0;whiteSpace=wrap;html=1;" parent="1" vertex="1">
          <mxGeometry x="600" y="150" width="10" height="380" as="geometry" />
        </mxCell>
        <mxCell id="pM4ZCDwtvh7wN7IAai_k-9" value="" style="rounded=0;whiteSpace=wrap;html=1;" parent="1" vertex="1">
          <mxGeometry x="800" y="150" width="10" height="380" as="geometry" />
        </mxCell>
        <mxCell id="pM4ZCDwtvh7wN7IAai_k-10" value="Baza de date" style="shape=cylinder3;whiteSpace=wrap;html=1;boundedLbl=1;backgroundOutline=1;size=15;" parent="1" vertex="1">
          <mxGeometry x="780" y="50" width="50" height="70" as="geometry" />
        </mxCell>
        <mxCell id="pM4ZCDwtvh7wN7IAai_k-11" value="Frontend" style="rounded=0;whiteSpace=wrap;html=1;" parent="1" vertex="1">
          <mxGeometry x="367.5" y="90" width="75" height="40" as="geometry" />
        </mxCell>
        <mxCell id="pM4ZCDwtvh7wN7IAai_k-12" value="Backend" style="rounded=0;whiteSpace=wrap;html=1;" parent="1" vertex="1">
          <mxGeometry x="567.5" y="90" width="75" height="40" as="geometry" />
        </mxCell>
        <mxCell id="pM4ZCDwtvh7wN7IAai_k-14" value="" style="endArrow=classic;html=1;rounded=0;exitX=1.143;exitY=0.065;exitDx=0;exitDy=0;exitPerimeter=0;entryX=-0.161;entryY=0.063;entryDx=0;entryDy=0;entryPerimeter=0;" parent="1" source="pM4ZCDwtvh7wN7IAai_k-5" target="pM4ZCDwtvh7wN7IAai_k-7" edge="1">
          <mxGeometry width="50" height="50" relative="1" as="geometry">
            <mxPoint x="230" y="180" as="sourcePoint" />
            <mxPoint x="280" y="130" as="targetPoint" />
          </mxGeometry>
        </mxCell>
        <mxCell id="pM4ZCDwtvh7wN7IAai_k-15" value="Initializeaza autentificarea" style="text;html=1;align=center;verticalAlign=middle;resizable=0;points=[];autosize=1;strokeColor=none;fillColor=none;" parent="1" vertex="1">
          <mxGeometry x="230" y="150" width="160" height="30" as="geometry" />
        </mxCell>
        <mxCell id="pM4ZCDwtvh7wN7IAai_k-17" value="" style="endArrow=classic;html=1;rounded=0;exitX=1.143;exitY=0.097;exitDx=0;exitDy=0;exitPerimeter=0;entryX=-0.248;entryY=0.095;entryDx=0;entryDy=0;entryPerimeter=0;" parent="1" source="pM4ZCDwtvh7wN7IAai_k-7" target="pM4ZCDwtvh7wN7IAai_k-8" edge="1">
          <mxGeometry width="50" height="50" relative="1" as="geometry">
            <mxPoint x="490" y="220" as="sourcePoint" />
            <mxPoint x="540" y="170" as="targetPoint" />
          </mxGeometry>
        </mxCell>
        <mxCell id="pM4ZCDwtvh7wN7IAai_k-18" value="Trimite datele spre backend" style="edgeLabel;html=1;align=center;verticalAlign=middle;resizable=0;points=[];" parent="pM4ZCDwtvh7wN7IAai_k-17" vertex="1" connectable="0">
          <mxGeometry x="0.047" y="5" relative="1" as="geometry">
            <mxPoint y="-11" as="offset" />
          </mxGeometry>
        </mxCell>
        <mxCell id="pM4ZCDwtvh7wN7IAai_k-19" value="" style="endArrow=classic;html=1;rounded=0;exitX=1.143;exitY=0.097;exitDx=0;exitDy=0;exitPerimeter=0;entryX=-0.248;entryY=0.095;entryDx=0;entryDy=0;entryPerimeter=0;" parent="1" edge="1">
          <mxGeometry width="50" height="50" relative="1" as="geometry">
            <mxPoint x="610" y="191" as="sourcePoint" />
            <mxPoint x="797" y="190" as="targetPoint" />
          </mxGeometry>
        </mxCell>
        <mxCell id="pM4ZCDwtvh7wN7IAai_k-20" value="Luam userul din baza de date" style="edgeLabel;html=1;align=center;verticalAlign=middle;resizable=0;points=[];" parent="pM4ZCDwtvh7wN7IAai_k-19" vertex="1" connectable="0">
          <mxGeometry x="0.047" y="5" relative="1" as="geometry">
            <mxPoint y="-11" as="offset" />
          </mxGeometry>
        </mxCell>
        <mxCell id="pM4ZCDwtvh7wN7IAai_k-21" value="" style="endArrow=classic;html=1;rounded=0;exitX=-0.509;exitY=0.226;exitDx=0;exitDy=0;exitPerimeter=0;entryX=1.143;entryY=0.232;entryDx=0;entryDy=0;entryPerimeter=0;" parent="1" source="pM4ZCDwtvh7wN7IAai_k-9" target="pM4ZCDwtvh7wN7IAai_k-8" edge="1">
          <mxGeometry width="50" height="50" relative="1" as="geometry">
            <mxPoint x="620" y="201" as="sourcePoint" />
            <mxPoint x="807" y="200" as="targetPoint" />
          </mxGeometry>
        </mxCell>
        <mxCell id="pM4ZCDwtvh7wN7IAai_k-22" value="Returnam userul daca exista" style="edgeLabel;html=1;align=center;verticalAlign=middle;resizable=0;points=[];" parent="pM4ZCDwtvh7wN7IAai_k-21" vertex="1" connectable="0">
          <mxGeometry x="0.047" y="5" relative="1" as="geometry">
            <mxPoint x="11" y="-22" as="offset" />
          </mxGeometry>
        </mxCell>
        <mxCell id="pM4ZCDwtvh7wN7IAai_k-23" value="" style="endArrow=classic;html=1;rounded=0;exitX=-0.248;exitY=0.212;exitDx=0;exitDy=0;exitPerimeter=0;entryX=1.23;entryY=0.214;entryDx=0;entryDy=0;entryPerimeter=0;" parent="1" source="pM4ZCDwtvh7wN7IAai_k-8" target="pM4ZCDwtvh7wN7IAai_k-7" edge="1">
          <mxGeometry width="50" height="50" relative="1" as="geometry">
            <mxPoint x="370" y="370" as="sourcePoint" />
            <mxPoint x="420" y="320" as="targetPoint" />
          </mxGeometry>
        </mxCell>
        <mxCell id="pM4ZCDwtvh7wN7IAai_k-24" value="&lt;font style=&quot;font-size: 11px;&quot;&gt;Se verifica parola daca userul exista&lt;/font&gt;" style="text;html=1;align=center;verticalAlign=middle;resizable=0;points=[];autosize=1;strokeColor=none;fillColor=none;" parent="1" vertex="1">
          <mxGeometry x="410" y="208" width="200" height="30" as="geometry" />
        </mxCell>
        <mxCell id="pM4ZCDwtvh7wN7IAai_k-25" value="" style="endArrow=classic;html=1;rounded=0;exitX=-0.074;exitY=0.201;exitDx=0;exitDy=0;exitPerimeter=0;entryX=1.057;entryY=0.206;entryDx=0;entryDy=0;entryPerimeter=0;" parent="1" source="pM4ZCDwtvh7wN7IAai_k-7" target="pM4ZCDwtvh7wN7IAai_k-5" edge="1">
          <mxGeometry width="50" height="50" relative="1" as="geometry">
            <mxPoint x="370" y="370" as="sourcePoint" />
            <mxPoint x="420" y="320" as="targetPoint" />
          </mxGeometry>
        </mxCell>
        <mxCell id="pM4ZCDwtvh7wN7IAai_k-28" value="&lt;font style=&quot;font-size: 10px;&quot;&gt;Se autentifica userul daca datele&lt;/font&gt;&lt;div&gt;&lt;font style=&quot;font-size: 10px;&quot;&gt;&amp;nbsp;sunt corecte&lt;/font&gt;&lt;/div&gt;" style="text;html=1;align=center;verticalAlign=middle;resizable=0;points=[];autosize=1;strokeColor=none;fillColor=none;" parent="1" vertex="1">
          <mxGeometry x="220" y="190" width="170" height="40" as="geometry" />
        </mxCell>
        <mxCell id="pM4ZCDwtvh7wN7IAai_k-29" value="" style="endArrow=classic;html=1;rounded=0;exitX=1.143;exitY=0.42;exitDx=0;exitDy=0;exitPerimeter=0;" parent="1" source="pM4ZCDwtvh7wN7IAai_k-5" edge="1">
          <mxGeometry width="50" height="50" relative="1" as="geometry">
            <mxPoint x="370" y="370" as="sourcePoint" />
            <mxPoint x="400" y="310" as="targetPoint" />
          </mxGeometry>
        </mxCell>
        <mxCell id="pM4ZCDwtvh7wN7IAai_k-30" value="Gestionarea contului" style="text;html=1;align=center;verticalAlign=middle;resizable=0;points=[];autosize=1;strokeColor=none;fillColor=none;" parent="1" vertex="1">
          <mxGeometry x="245" y="278" width="130" height="30" as="geometry" />
        </mxCell>
        <mxCell id="pM4ZCDwtvh7wN7IAai_k-31" value="" style="endArrow=classic;html=1;rounded=0;exitX=1.143;exitY=0.42;exitDx=0;exitDy=0;exitPerimeter=0;" parent="1" edge="1">
          <mxGeometry width="50" height="50" relative="1" as="geometry">
            <mxPoint x="411" y="310" as="sourcePoint" />
            <mxPoint x="600" y="310" as="targetPoint" />
          </mxGeometry>
        </mxCell>
        <mxCell id="pM4ZCDwtvh7wN7IAai_k-32" value="Trimite datele spre backend" style="edgeLabel;html=1;align=center;verticalAlign=middle;resizable=0;points=[];" parent="1" vertex="1" connectable="0">
          <mxGeometry x="510.000072085962" y="293.00229451104764" as="geometry" />
        </mxCell>
        <mxCell id="pM4ZCDwtvh7wN7IAai_k-33" value="" style="endArrow=classic;html=1;rounded=0;exitX=1.143;exitY=0.42;exitDx=0;exitDy=0;exitPerimeter=0;" parent="1" edge="1">
          <mxGeometry width="50" height="50" relative="1" as="geometry">
            <mxPoint x="611" y="310" as="sourcePoint" />
            <mxPoint x="800" y="310" as="targetPoint" />
          </mxGeometry>
        </mxCell>
        <mxCell id="pM4ZCDwtvh7wN7IAai_k-34" value="&lt;font style=&quot;font-size: 11px;&quot;&gt;Efectuarea operatie in baza de date&lt;/font&gt;" style="text;html=1;align=center;verticalAlign=middle;resizable=0;points=[];autosize=1;strokeColor=none;fillColor=none;" parent="1" vertex="1">
          <mxGeometry x="610" y="278" width="200" height="30" as="geometry" />
        </mxCell>
        <mxCell id="pM4ZCDwtvh7wN7IAai_k-35" value="" style="endArrow=classic;html=1;rounded=0;exitX=0.013;exitY=0.522;exitDx=0;exitDy=0;entryX=1.143;entryY=0.52;entryDx=0;entryDy=0;entryPerimeter=0;exitPerimeter=0;" parent="1" source="pM4ZCDwtvh7wN7IAai_k-9" target="pM4ZCDwtvh7wN7IAai_k-8" edge="1">
          <mxGeometry width="50" height="50" relative="1" as="geometry">
            <mxPoint x="370" y="380" as="sourcePoint" />
            <mxPoint x="420" y="330" as="targetPoint" />
          </mxGeometry>
        </mxCell>
        <mxCell id="pM4ZCDwtvh7wN7IAai_k-36" value="Returnarea detelor modificate" style="text;html=1;align=center;verticalAlign=middle;resizable=0;points=[];autosize=1;strokeColor=none;fillColor=none;" parent="1" vertex="1">
          <mxGeometry x="620" y="325" width="180" height="30" as="geometry" />
        </mxCell>
        <mxCell id="pM4ZCDwtvh7wN7IAai_k-37" value="" style="endArrow=classic;html=1;rounded=0;exitX=-0.161;exitY=0.526;exitDx=0;exitDy=0;exitPerimeter=0;" parent="1" source="pM4ZCDwtvh7wN7IAai_k-8" edge="1">
          <mxGeometry width="50" height="50" relative="1" as="geometry">
            <mxPoint x="370" y="380" as="sourcePoint" />
            <mxPoint x="411" y="350" as="targetPoint" />
          </mxGeometry>
        </mxCell>
        <mxCell id="pM4ZCDwtvh7wN7IAai_k-38" value="Returnarea datelor spre interfata" style="text;html=1;align=center;verticalAlign=middle;resizable=0;points=[];autosize=1;strokeColor=none;fillColor=none;" parent="1" vertex="1">
          <mxGeometry x="410" y="325" width="200" height="30" as="geometry" />
        </mxCell>
        <mxCell id="pM4ZCDwtvh7wN7IAai_k-41" value="" style="endArrow=classic;html=1;rounded=0;exitX=0.013;exitY=0.526;exitDx=0;exitDy=0;exitPerimeter=0;entryX=1.23;entryY=0.526;entryDx=0;entryDy=0;entryPerimeter=0;" parent="1" source="pM4ZCDwtvh7wN7IAai_k-7" target="pM4ZCDwtvh7wN7IAai_k-5" edge="1">
          <mxGeometry width="50" height="50" relative="1" as="geometry">
            <mxPoint x="370" y="380" as="sourcePoint" />
            <mxPoint x="420" y="330" as="targetPoint" />
          </mxGeometry>
        </mxCell>
        <mxCell id="pM4ZCDwtvh7wN7IAai_k-42" value="Afisarea datelor modificate" style="text;html=1;align=center;verticalAlign=middle;resizable=0;points=[];autosize=1;strokeColor=none;fillColor=none;" parent="1" vertex="1">
          <mxGeometry x="230" y="320" width="170" height="30" as="geometry" />
        </mxCell>
        <mxCell id="pM4ZCDwtvh7wN7IAai_k-43" value="" style="endArrow=classic;html=1;rounded=0;exitX=1.057;exitY=0.68;exitDx=0;exitDy=0;exitPerimeter=0;" parent="1" source="pM4ZCDwtvh7wN7IAai_k-5" edge="1">
          <mxGeometry width="50" height="50" relative="1" as="geometry">
            <mxPoint x="370" y="380" as="sourcePoint" />
            <mxPoint x="400" y="410" as="targetPoint" />
          </mxGeometry>
        </mxCell>
        <mxCell id="pM4ZCDwtvh7wN7IAai_k-44" value="Modificarea de enititati" style="text;html=1;align=center;verticalAlign=middle;resizable=0;points=[];autosize=1;strokeColor=none;fillColor=none;" parent="1" vertex="1">
          <mxGeometry x="235" y="380" width="140" height="30" as="geometry" />
        </mxCell>
        <mxCell id="pM4ZCDwtvh7wN7IAai_k-45" value="" style="endArrow=classic;html=1;rounded=0;exitX=1.317;exitY=0.677;exitDx=0;exitDy=0;exitPerimeter=0;" parent="1" source="pM4ZCDwtvh7wN7IAai_k-7" edge="1">
          <mxGeometry width="50" height="50" relative="1" as="geometry">
            <mxPoint x="431" y="410" as="sourcePoint" />
            <mxPoint x="601" y="408" as="targetPoint" />
          </mxGeometry>
        </mxCell>
        <mxCell id="pM4ZCDwtvh7wN7IAai_k-46" value="Verificarea permisiunilor" style="text;html=1;align=center;verticalAlign=middle;resizable=0;points=[];autosize=1;strokeColor=none;fillColor=none;" parent="1" vertex="1">
          <mxGeometry x="435" y="380" width="150" height="30" as="geometry" />
        </mxCell>
        <mxCell id="pM4ZCDwtvh7wN7IAai_k-47" value="" style="endArrow=classic;html=1;rounded=0;exitX=1.317;exitY=0.677;exitDx=0;exitDy=0;exitPerimeter=0;" parent="1" edge="1">
          <mxGeometry width="50" height="50" relative="1" as="geometry">
            <mxPoint x="612" y="410" as="sourcePoint" />
            <mxPoint x="800" y="411" as="targetPoint" />
          </mxGeometry>
        </mxCell>
        <mxCell id="pM4ZCDwtvh7wN7IAai_k-48" value="&lt;font style=&quot;font-size: 10px;&quot;&gt;Efectuarea operatiei in baza de date&lt;/font&gt;" style="text;html=1;align=center;verticalAlign=middle;resizable=0;points=[];autosize=1;strokeColor=none;fillColor=none;" parent="1" vertex="1">
          <mxGeometry x="620" y="380" width="180" height="30" as="geometry" />
        </mxCell>
        <mxCell id="pM4ZCDwtvh7wN7IAai_k-49" value="" style="endArrow=classic;html=1;rounded=0;entryX=0.97;entryY=0.775;entryDx=0;entryDy=0;entryPerimeter=0;" parent="1" target="pM4ZCDwtvh7wN7IAai_k-8" edge="1">
          <mxGeometry width="50" height="50" relative="1" as="geometry">
            <mxPoint x="805" y="445" as="sourcePoint" />
            <mxPoint x="798" y="451" as="targetPoint" />
          </mxGeometry>
        </mxCell>
        <mxCell id="pM4ZCDwtvh7wN7IAai_k-50" value="Returnarea datelor modificate" style="text;html=1;align=center;verticalAlign=middle;resizable=0;points=[];autosize=1;strokeColor=none;fillColor=none;" parent="1" vertex="1">
          <mxGeometry x="620" y="418" width="180" height="30" as="geometry" />
        </mxCell>
        <mxCell id="pM4ZCDwtvh7wN7IAai_k-51" value="" style="endArrow=classic;html=1;rounded=0;exitX=0.013;exitY=0.779;exitDx=0;exitDy=0;exitPerimeter=0;entryX=1.404;entryY=0.777;entryDx=0;entryDy=0;entryPerimeter=0;" parent="1" source="pM4ZCDwtvh7wN7IAai_k-8" target="pM4ZCDwtvh7wN7IAai_k-7" edge="1">
          <mxGeometry width="50" height="50" relative="1" as="geometry">
            <mxPoint x="470" y="420" as="sourcePoint" />
            <mxPoint x="520" y="370" as="targetPoint" />
          </mxGeometry>
        </mxCell>
        <mxCell id="pM4ZCDwtvh7wN7IAai_k-52" value="Returnarea datelor spre interfata" style="text;html=1;align=center;verticalAlign=middle;resizable=0;points=[];autosize=1;strokeColor=none;fillColor=none;" parent="1" vertex="1">
          <mxGeometry x="410" y="418" width="200" height="30" as="geometry" />
        </mxCell>
        <mxCell id="pM4ZCDwtvh7wN7IAai_k-53" value="" style="endArrow=classic;html=1;rounded=0;exitX=0.1;exitY=0.793;exitDx=0;exitDy=0;exitPerimeter=0;entryX=0.796;entryY=0.793;entryDx=0;entryDy=0;entryPerimeter=0;" parent="1" source="pM4ZCDwtvh7wN7IAai_k-7" target="pM4ZCDwtvh7wN7IAai_k-5" edge="1">
          <mxGeometry width="50" height="50" relative="1" as="geometry">
            <mxPoint x="470" y="420" as="sourcePoint" />
            <mxPoint x="520" y="370" as="targetPoint" />
          </mxGeometry>
        </mxCell>
        <mxCell id="pM4ZCDwtvh7wN7IAai_k-54" value="Afisarea datelor modificate" style="text;html=1;align=center;verticalAlign=middle;resizable=0;points=[];autosize=1;strokeColor=none;fillColor=none;" parent="1" vertex="1">
          <mxGeometry x="220" y="418" width="170" height="30" as="geometry" />
        </mxCell>
        <mxCell id="pM4ZCDwtvh7wN7IAai_k-55" value="" style="endArrow=classic;html=1;rounded=0;exitX=0.97;exitY=0.873;exitDx=0;exitDy=0;exitPerimeter=0;entryX=-0.074;entryY=0.873;entryDx=0;entryDy=0;entryPerimeter=0;" parent="1" source="pM4ZCDwtvh7wN7IAai_k-8" target="pM4ZCDwtvh7wN7IAai_k-9" edge="1">
          <mxGeometry width="50" height="50" relative="1" as="geometry">
            <mxPoint x="670" y="510" as="sourcePoint" />
            <mxPoint x="720" y="460" as="targetPoint" />
          </mxGeometry>
        </mxCell>
        <mxCell id="pM4ZCDwtvh7wN7IAai_k-56" value="Verificare de evenimente" style="text;html=1;align=center;verticalAlign=middle;resizable=0;points=[];autosize=1;strokeColor=none;fillColor=none;" parent="1" vertex="1">
          <mxGeometry x="620" y="460" width="160" height="30" as="geometry" />
        </mxCell>
        <mxCell id="pM4ZCDwtvh7wN7IAai_k-57" value="" style="endArrow=classic;html=1;rounded=0;exitX=-0.335;exitY=0.958;exitDx=0;exitDy=0;exitPerimeter=0;entryX=1.317;entryY=0.955;entryDx=0;entryDy=0;entryPerimeter=0;" parent="1" source="pM4ZCDwtvh7wN7IAai_k-9" target="pM4ZCDwtvh7wN7IAai_k-8" edge="1">
          <mxGeometry width="50" height="50" relative="1" as="geometry">
            <mxPoint x="470" y="420" as="sourcePoint" />
            <mxPoint x="520" y="370" as="targetPoint" />
          </mxGeometry>
        </mxCell>
        <mxCell id="pM4ZCDwtvh7wN7IAai_k-58" value="&lt;font style=&quot;font-size: 11px;&quot;&gt;Returneaza evenimente daca exista&lt;/font&gt;" style="text;html=1;align=center;verticalAlign=middle;resizable=0;points=[];autosize=1;strokeColor=none;fillColor=none;" parent="1" vertex="1">
          <mxGeometry x="610" y="488" width="200" height="30" as="geometry" />
        </mxCell>
        <mxCell id="pM4ZCDwtvh7wN7IAai_k-59" value="" style="endArrow=classic;html=1;rounded=0;exitX=-0.596;exitY=0.961;exitDx=0;exitDy=0;exitPerimeter=0;entryX=1.404;entryY=0.957;entryDx=0;entryDy=0;entryPerimeter=0;" parent="1" source="pM4ZCDwtvh7wN7IAai_k-8" target="pM4ZCDwtvh7wN7IAai_k-7" edge="1">
          <mxGeometry width="50" height="50" relative="1" as="geometry">
            <mxPoint x="470" y="420" as="sourcePoint" />
            <mxPoint x="520" y="370" as="targetPoint" />
          </mxGeometry>
        </mxCell>
        <mxCell id="pM4ZCDwtvh7wN7IAai_k-60" value="Trimiterea notificarilor daca exista" style="text;html=1;align=center;verticalAlign=middle;resizable=0;points=[];autosize=1;strokeColor=none;fillColor=none;" parent="1" vertex="1">
          <mxGeometry x="410" y="488" width="200" height="30" as="geometry" />
        </mxCell>
        <mxCell id="pM4ZCDwtvh7wN7IAai_k-61" value="" style="endArrow=classic;html=1;rounded=0;exitX=-0.161;exitY=0.964;exitDx=0;exitDy=0;exitPerimeter=0;entryX=1.317;entryY=0.968;entryDx=0;entryDy=0;entryPerimeter=0;" parent="1" source="pM4ZCDwtvh7wN7IAai_k-7" target="pM4ZCDwtvh7wN7IAai_k-5" edge="1">
          <mxGeometry width="50" height="50" relative="1" as="geometry">
            <mxPoint x="470" y="430" as="sourcePoint" />
            <mxPoint x="520" y="380" as="targetPoint" />
          </mxGeometry>
        </mxCell>
        <mxCell id="pM4ZCDwtvh7wN7IAai_k-62" value="Afisarea notificarilor" style="text;html=1;align=center;verticalAlign=middle;resizable=0;points=[];autosize=1;strokeColor=none;fillColor=none;" parent="1" vertex="1">
          <mxGeometry x="235" y="488" width="130" height="30" as="geometry" />
        </mxCell>
      </root>
    </mxGraphModel>
  </diagram>
</mxfile>
